<?xml version="1.0" encoding="iso-8859-1"?>
<!-- Uploaded to: SVG Repo, www.svgrepo.com, Generator: SVG Repo Mixer Tools -->
<svg fill="#000000" version="1.1" id="Layer_1" xmlns="http://www.w3.org/2000/svg" xmlns:xlink="http://www.w3.org/1999/xlink" 
	 viewBox="0 0 512 512" xml:space="preserve">
<g>
	<g>
		<path d="M389.742,77.553H329.99V30.417h15.146V0H166.865v30.417h15.146v47.135h-59.752c-19.059,0-34.566,15.506-34.566,34.566
			V438.41c0,19.059,15.506,34.566,34.566,34.566h26.268V512h30.417v-39.024h154.114V512h30.417v-39.024h26.268
			c19.059,0,34.566-15.506,34.566-34.566V112.119C424.308,93.058,408.802,77.553,389.742,77.553z M212.426,30.417h87.146v47.135
			h-87.146V30.417z M393.891,438.41c0,2.287-1.861,4.149-4.149,4.149H122.258c-2.287,0-4.149-1.861-4.149-4.149V112.119
			c0-2.287,1.861-4.149,4.149-4.149h267.484c2.287,0,4.149,1.861,4.149,4.149V438.41z"/>
	</g>
</g>
<g>
	<g>
		<rect x="148.933" y="229.639" width="30.417" height="178.447"/>
	</g>
</g>
<g>
	<g>
		<rect x="210.172" y="229.639" width="30.417" height="178.447"/>
	</g>
</g>
<g>
	<g>
		<rect x="271.412" y="229.639" width="30.417" height="178.447"/>
	</g>
</g>
<g>
	<g>
		<rect x="332.652" y="229.639" width="30.417" height="178.447"/>
	</g>
</g>
<g>
	<g>
		<path d="M179.957,128.908v76.711h152.086v-76.711H179.957z M301.626,175.202h-91.252v-15.877h91.252V175.202z"/>
	</g>
</g>
</svg>