
<svg xmlns="http://www.w3.org/2000/svg" xmlns:xlink="http://www.w3.org/1999/xlink" viewBox="0 0 28 27" width="28" height="27" fill="none">
  <svg xmlns="http://www.w3.org/2000/svg" height="27" width="27" viewBox="0 0 24 24" fill="#3b80ef" x="0.5" y="0" opacity="100%">
    <path d="M0 0h24v24H0z" fill="none"></path>
    <path d="M12 2a10 10 0 1 0 10 10A10 10 0 0 0 12 2zm6 9.8a.9.9 0 0 1-.1.5l-2.1 4.9a1.34 1.34 0 0 1-1.3.8H9a2 2 0 0 1-2-2v-5a1.28 1.28 0 0 1 .4-1L12 5l.69.69a1.08 1.08 0 0 1 .3.7v.2L12.41 10H17a1 1 0 0 1 1 1z"></path>
  </svg>
  <defs>
    <filter id="filter_dshadow_10_0_2_0000001a" color-interpolation-filters="sRGB" filterUnits="userSpaceOnUse">
      <feFlood flood-opacity="0" result="bg-fix"></feFlood>
      <feColorMatrix in="SourceAlpha" type="matrix" values="0 0 0 0 0 0 0 0 0 0 0 0 0 0 0 0 0 0 127 0" result="alpha"></feColorMatrix>
      <feOffset dx="0" dy="2"></feOffset>
      <feGaussianBlur stdDeviation="5"></feGaussianBlur>
      <feComposite in2="alpha" operator="out"></feComposite>
      <feColorMatrix type="matrix" values="0 0 0 0 0 0 0 0 0 0 0 0 0 0 0 0 0 0 0.1 0"></feColorMatrix>
      <feBlend mode="normal" in2="bg-fix" result="bg-fix-filter_dshadow_10_0_2_0000001a"></feBlend>
      <feBlend in="SourceGraphic" in2="bg-fix-filter_dshadow_10_0_2_0000001a" result="shape"></feBlend>
    </filter>
  </defs>
</svg>