<?xml version="1.0" encoding="iso-8859-1"?>
<!-- Uploaded to: SVG Repo, www.svgrepo.com, Generator: SVG Repo Mixer Tools -->
<svg height="800px" width="800px" version="1.1" id="Layer_1" xmlns="http://www.w3.org/2000/svg" xmlns:xlink="http://www.w3.org/1999/xlink" 
	 viewBox="0 0 392.461 392.461" xml:space="preserve">
<path style="fill:#FFFFFF;" d="M21.871,148.687c0,70.012,56.954,126.901,126.966,126.901s126.901-57.018,126.901-126.901
	S218.784,21.786,148.772,21.786S21.871,78.739,21.871,148.687z M98.218,104.598C98.348,104.598,98.348,104.598,98.218,104.598
	c4.073,0,7.758,2.263,9.632,5.818l12.541,23.725l44.865-66.457c2.069-3.168,5.689-4.978,9.503-4.784
	c3.814,0.129,7.176,2.263,9.051,5.56l64.905,116.299c1.875,3.426,1.875,7.499-0.065,10.796c-1.939,3.297-5.56,5.43-9.438,5.43
	h-101.43c-0.065,0-0.129,0-0.259,0s-0.129,0-0.259,0H58.267c-3.879,0-7.434-2.004-9.374-5.301c-1.939-3.297-2.069-7.37-0.259-10.731
	l40.016-74.537C90.59,106.861,94.21,104.598,98.218,104.598z"/>
<path style="fill:#56ACE0;" d="M267.398,238.352h-0.065c-8.275,10.796-17.907,20.558-28.768,28.768v0.065l97.164,97.164
	c7.758,7.758,21.204,7.758,28.897,0c6.788-6.788,9.051-19.782,0-28.897L267.398,238.352z"/>
<g>
	<polygon style="fill:#FFC10D;" points="98.154,138.667 76.433,179.2 119.552,179.2 	"/>
	<polygon style="fill:#FFC10D;" points="220.723,179.2 173.402,94.578 131.964,155.992 144.117,179.2 	"/>
</g>
<g>
	<path style="fill:#194F82;" d="M48.958,195.62c1.939,3.297,5.495,5.301,9.374,5.301h79.063c0.065,0,0.129,0,0.259,0
		c0.129,0,0.129,0,0.259,0h101.43c3.879,0,7.434-2.069,9.438-5.43c1.939-3.297,2.004-7.434,0.065-10.796l-64.97-116.17
		c-1.875-3.297-5.236-5.43-9.051-5.56c-3.814-0.129-7.37,1.616-9.503,4.784l-44.929,66.457l-12.541-23.725
		c-1.875-3.556-5.56-5.818-9.568-5.818l0,0c-4.008,0-7.758,2.263-9.568,5.689l-40.081,74.473
		C46.824,188.315,46.954,192.388,48.958,195.62z M98.154,138.667l21.333,40.469H76.433L98.154,138.667z M173.402,94.578
		l47.321,84.622h-76.606l-12.218-23.208L173.402,94.578z"/>
	<path style="fill:#194F82;" d="M379.883,320.129L279.422,219.669c11.507-21.075,18.101-45.253,18.101-70.917
		C297.523,66.715,230.744,0,148.772,0S0.085,66.715,0.085,148.687S66.8,297.374,148.772,297.374
		c25.665,0,49.842-6.594,70.917-18.101L320.15,379.733c8.663,10.214,37.107,22.626,59.669,0
		C401.087,358.723,391.325,330.343,379.883,320.129z M364.497,364.412c-7.758,7.758-21.204,7.758-28.897,0l-97.099-97.164v-0.065
		c10.796-8.275,20.558-17.907,28.768-28.768h0.065l97.164,97.164C373.548,344.63,371.35,357.624,364.497,364.412z M275.738,148.687
		c0,70.012-56.954,126.901-126.901,126.901C78.76,275.653,21.871,218.699,21.871,148.687S78.76,21.786,148.772,21.786
		S275.738,78.739,275.738,148.687z"/>
</g>
</svg>